name rise36.2859peak64.2979fall75.1499.mot
datacolumns 19
datarows 24
range 7.00497100000000 7.04330800000000
endheader
time	ground_force1_vx	ground_force1_vy	ground_force1_vz	ground_force1_px	ground_force1_py	ground_force1_pz	ground_force2_vx	ground_force2_vy	ground_force2_vz	ground_force2_px	ground_force2_py	ground_force2_pz	ground_torque1_x	ground_torque1_y	ground_torque1_z	ground_torque2_x	ground_torque2_y	ground_torque2_z	
7.00497100000000	8.64832700000000	706.68288099999995	46.24546800000000	0.29213600000000	0.00000000000000	0.10358000000000	0.00000000000000	0.00000000000000	0.00000000000000	0.00000000000000	0.00000000000000	0.00000000000000	0.00000000000000	27.24726600000000	0.00000000000000	0.00000000000000	0.00000000000000	0.00000000000000	
7.00664400000000	8.18977000000000	708.04588400000000	46.21079900000000	0.29139100000000	0.00000000000000	0.10356000000000	0.00000000000000	0.00000000000000	0.00000000000000	0.00000000000000	0.00000000000000	0.00000000000000	0.00000000000000	27.30010300000000	0.00000000000000	0.00000000000000	0.00000000000000	0.00000000000000	
7.00830800000000	7.72274900000000	709.42287199999998	46.17408900000000	0.29065800000000	0.00000000000000	0.10353700000000	0.00000000000000	0.00000000000000	0.00000000000000	0.00000000000000	0.00000000000000	0.00000000000000	0.00000000000000	27.35424600000000	0.00000000000000	0.00000000000000	0.00000000000000	0.00000000000000	
7.00997100000000	7.24709400000000	710.81342900000004	46.13539100000000	0.28993500000000	0.00000000000000	0.10351300000000	0.00000000000000	0.00000000000000	0.00000000000000	0.00000000000000	0.00000000000000	0.00000000000000	0.00000000000000	27.40963000000000	0.00000000000000	0.00000000000000	0.00000000000000	0.00000000000000	
7.01164000000000	6.76266000000000	712.21727299999998	46.09478100000000	0.28921900000000	0.00000000000000	0.10348700000000	0.00000000000000	0.00000000000000	0.00000000000000	0.00000000000000	0.00000000000000	0.00000000000000	0.00000000000000	27.46619800000000	0.00000000000000	0.00000000000000	0.00000000000000	0.00000000000000	
7.01330400000000	6.26932700000000	713.63425500000005	46.05235800000000	0.28851100000000	0.00000000000000	0.10345800000000	0.00000000000000	0.00000000000000	0.00000000000000	0.00000000000000	0.00000000000000	0.00000000000000	0.00000000000000	27.52389900000000	0.00000000000000	0.00000000000000	0.00000000000000	0.00000000000000	
7.01497300000000	5.76700400000000	715.06434999999999	46.00824600000000	0.28780800000000	0.00000000000000	0.10342800000000	0.00000000000000	0.00000000000000	0.00000000000000	0.00000000000000	0.00000000000000	0.00000000000000	0.00000000000000	27.58268800000000	0.00000000000000	0.00000000000000	0.00000000000000	0.00000000000000	
7.01664100000000	5.25562600000000	716.50765400000000	45.96258900000000	0.28710900000000	0.00000000000000	0.10339500000000	0.00000000000000	0.00000000000000	0.00000000000000	0.00000000000000	0.00000000000000	0.00000000000000	0.00000000000000	27.64252700000000	0.00000000000000	0.00000000000000	0.00000000000000	0.00000000000000	
7.01830800000000	4.73515400000000	717.96437600000002	45.91555400000000	0.28641300000000	0.00000000000000	0.10336100000000	0.00000000000000	0.00000000000000	0.00000000000000	0.00000000000000	0.00000000000000	0.00000000000000	0.00000000000000	27.70338300000000	0.00000000000000	0.00000000000000	0.00000000000000	0.00000000000000	
7.01997100000000	4.20557900000000	719.43482700000004	45.86732900000000	0.28571800000000	0.00000000000000	0.10332500000000	0.00000000000000	0.00000000000000	0.00000000000000	0.00000000000000	0.00000000000000	0.00000000000000	0.00000000000000	27.76522700000000	0.00000000000000	0.00000000000000	0.00000000000000	0.00000000000000	
7.02164400000000	3.66692000000000	720.91941699999995	45.81812300000000	0.28502300000000	0.00000000000000	0.10328700000000	0.00000000000000	0.00000000000000	0.00000000000000	0.00000000000000	0.00000000000000	0.00000000000000	0.00000000000000	27.82804000000000	0.00000000000000	0.00000000000000	0.00000000000000	0.00000000000000	
7.02330500000000	3.11922400000000	722.41864099999998	45.76816600000000	0.28432700000000	0.00000000000000	0.10324800000000	0.00000000000000	0.00000000000000	0.00000000000000	0.00000000000000	0.00000000000000	0.00000000000000	0.00000000000000	27.89180200000000	0.00000000000000	0.00000000000000	0.00000000000000	0.00000000000000	
7.02497000000000	2.56256600000000	723.93307300000004	45.71770400000000	0.28362900000000	0.00000000000000	0.10320800000000	0.00000000000000	0.00000000000000	0.00000000000000	0.00000000000000	0.00000000000000	0.00000000000000	0.00000000000000	27.95650200000000	0.00000000000000	0.00000000000000	0.00000000000000	0.00000000000000	
7.02664000000000	1.99705300000000	725.46335499999998	45.66700600000000	0.28292700000000	0.00000000000000	0.10316500000000	0.00000000000000	0.00000000000000	0.00000000000000	0.00000000000000	0.00000000000000	0.00000000000000	0.00000000000000	28.02213100000000	0.00000000000000	0.00000000000000	0.00000000000000	0.00000000000000	
7.02830800000000	1.42281700000000	727.01018599999998	45.61635400000000	0.28222000000000	0.00000000000000	0.10312200000000	0.00000000000000	0.00000000000000	0.00000000000000	0.00000000000000	0.00000000000000	0.00000000000000	0.00000000000000	28.08868600000000	0.00000000000000	0.00000000000000	0.00000000000000	0.00000000000000	
7.02998100000000	0.84002300000000	728.57431099999997	45.56604900000000	0.28150700000000	0.00000000000000	0.10307700000000	0.00000000000000	0.00000000000000	0.00000000000000	0.00000000000000	0.00000000000000	0.00000000000000	0.00000000000000	28.15616500000000	0.00000000000000	0.00000000000000	0.00000000000000	0.00000000000000	
7.03164200000000	0.24886000000000	730.15651200000002	45.51640400000000	0.28078600000000	0.00000000000000	0.10303200000000	0.00000000000000	0.00000000000000	0.00000000000000	0.00000000000000	0.00000000000000	0.00000000000000	0.00000000000000	28.22457100000000	0.00000000000000	0.00000000000000	0.00000000000000	0.00000000000000	
7.03331000000000	-0.35045000000000	731.75759400000004	45.46774900000000	0.28005800000000	0.00000000000000	0.10298500000000	0.00000000000000	0.00000000000000	0.00000000000000	0.00000000000000	0.00000000000000	0.00000000000000	0.00000000000000	28.29390700000000	0.00000000000000	0.00000000000000	0.00000000000000	0.00000000000000	
7.03498000000000	-0.95765900000000	733.37837400000001	45.42042400000000	0.27932100000000	0.00000000000000	0.10293700000000	0.00000000000000	0.00000000000000	0.00000000000000	0.00000000000000	0.00000000000000	0.00000000000000	0.00000000000000	28.36418200000000	0.00000000000000	0.00000000000000	0.00000000000000	0.00000000000000	
7.03664200000000	-1.57249200000000	735.01967200000001	45.37478200000000	0.27857400000000	0.00000000000000	0.10288900000000	0.00000000000000	0.00000000000000	0.00000000000000	0.00000000000000	0.00000000000000	0.00000000000000	0.00000000000000	28.43540400000000	0.00000000000000	0.00000000000000	0.00000000000000	0.00000000000000	
7.03830800000000	-2.19464400000000	736.68229399999996	45.33118500000000	0.27781700000000	0.00000000000000	0.10283900000000	0.00000000000000	0.00000000000000	0.00000000000000	0.00000000000000	0.00000000000000	0.00000000000000	0.00000000000000	28.50758100000000	0.00000000000000	0.00000000000000	0.00000000000000	0.00000000000000	
7.03997300000000	-2.82378400000000	738.36702800000000	45.29000400000000	0.27704800000000	0.00000000000000	0.10278900000000	0.00000000000000	0.00000000000000	0.00000000000000	0.00000000000000	0.00000000000000	0.00000000000000	0.00000000000000	28.58072400000000	0.00000000000000	0.00000000000000	0.00000000000000	0.00000000000000	
7.04164100000000	-3.45955700000000	740.07462299999997	45.25161400000000	0.27626800000000	0.00000000000000	0.10273900000000	0.00000000000000	0.00000000000000	0.00000000000000	0.00000000000000	0.00000000000000	0.00000000000000	0.00000000000000	28.65484300000000	0.00000000000000	0.00000000000000	0.00000000000000	0.00000000000000	
7.04330800000000	-4.10158000000000	741.80578600000001	45.21639900000000	0.27547500000000	0.00000000000000	0.10268800000000	0.00000000000000	0.00000000000000	0.00000000000000	0.00000000000000	0.00000000000000	0.00000000000000	0.00000000000000	28.72994800000000	0.00000000000000	0.00000000000000	0.00000000000000	0.00000000000000	
